<svg height="511pt" viewBox="-34 1 511 511.99898" width="511pt" xmlns="http://www.w3.org/2000/svg"><path fill="#818181" d="m298.535156 177.523438v-44.777344c0-5.613282-4.550781-10.160156-10.160156-10.160156s-10.160156 4.546874-10.160156 10.160156v44.777344c-12.078125 4.210937-20.765625 15.714843-20.765625 29.210937 0 17.054687 13.871093 30.929687 30.925781 30.929687 5.691406 0 11.03125-1.546874 15.617188-4.242187l55.421874 55.417969c1.984376 1.984375 4.582032 2.976562 7.183594 2.976562 2.601563 0 5.199219-.992187 7.183594-2.976562 3.96875-3.964844 3.96875-10.398438 0-14.367188l-56.566406-56.566406c1.347656-3.46875 2.085937-7.234375 2.085937-11.171875 0-13.496094-8.6875-25-20.765625-29.210937zm-20.769531 29.210937c0-5.847656 4.761719-10.605469 10.609375-10.605469s10.605469 4.757813 10.605469 10.605469-4.757813 10.609375-10.605469 10.609375c-5.851562 0-10.609375-4.757812-10.609375-10.609375zm0 0"/><path fill="#818181" d="m218.816406 345.621094c21.464844 10.753906 45.386719 16.417968 69.558594 16.417968 85.632812 0 155.300781-69.667968 155.300781-155.304687 0-85.632813-69.667969-155.300781-155.300781-155.300781-28.152344 0-55.152344 7.40625-78.988281 21.546875-8.914063-41.652344-46.007813-72.980469-90.285157-72.980469-50.90625 0-92.324218 41.417969-92.324218 92.324219 0 25.773437 10.613281 49.113281 27.703125 65.878906-12.128907 4.601563-23.113281 12.015625-32.050781 21.785156-14.144532 15.457031-21.929688 35.515625-21.929688 56.480469v78.300781c0 19.105469 15.542969 34.648438 34.648438 34.648438 5.105468 0 9.960937-1.113281 14.328124-3.105469v155.527344c0 5.609375 4.550782 10.160156 10.160157 10.160156h118.816406c5.613281 0 10.160156-4.550781 10.160156-10.160156v-155.578125c4.402344 2.027343 9.292969 3.15625 14.445313 3.15625 5.671875 0 11.027344-1.371094 15.757812-3.796875zm204.023438-150.761719h-16.515625c-5.613281 0-10.160157 4.546875-10.160157 10.160156 0 5.609375 4.546876 10.160157 10.160157 10.160157h16.769531c-4.164062 67.144531-57.640625 121.15625-124.558594 126.160156v-18.371094c0-5.613281-4.550781-10.160156-10.160156-10.160156s-10.160156 4.546875-10.160156 10.160156v18.367188c-15.269532-1.152344-30.25-4.890626-44.199219-11.015626 2.359375-4.679687 3.691406-9.960937 3.691406-15.550781v-78.300781c0-20.976562-7.800781-41.046875-21.960937-56.511719-8.933594-9.753906-19.90625-17.15625-32.019532-21.753906 16.300782-15.996094 26.710938-37.972656 27.636719-62.339844 19.878907-13.855469 42.742188-21.960937 66.851563-23.738281v14.945312c0 5.613282 4.550781 10.160157 10.160156 10.160157s10.160156-4.546875 10.160156-10.160157v-14.9375c65.773438 4.917969 118.5625 57.179688 124.304688 122.726563zm-375.742188-102.535156c0-39.703125 32.300782-72.003907 72.003906-72.003907 39.707032 0 72.007813 32.300782 72.007813 72.003907 0 39.707031-32.300781 72.007812-72.007813 72.007812-39.703124 0-72.003906-32.300781-72.003906-72.007812zm121.199219 399.355469h-39.089844v-102.308594c0-5.609375-4.550781-10.160156-10.160156-10.160156s-10.160156 4.550781-10.160156 10.160156v102.308594h-39.089844v-149.929688h98.496094v149.929688zm20.429687-176.910157c0-.515625-.039062-1.023437-.113281-1.519531v-49.910156c0-5.609375-4.546875-10.160156-10.160156-10.160156-5.609375 0-10.15625 4.550781-10.15625 10.160156v58.089844h-98.5v-58.089844c0-5.609375-4.550781-10.160156-10.160156-10.160156s-10.160157 4.550781-10.160157 10.160156v51.429687c0 7.902344-6.425781 14.332031-14.328124 14.332031-7.902344 0-14.328126-6.429687-14.328126-14.332031v-78.300781c0-31.976562 23.316407-58.515625 54.664063-62.785156 10.167969 5.472656 21.472656 9.09375 33.457031 10.414062v43.160156c0 5.609376 4.550782 10.160157 10.160156 10.160157 5.613282 0 10.160157-4.550781 10.160157-10.160157v-43.160156c11.988281-1.316406 23.292969-4.941406 33.460937-10.414062 31.351563 4.269531 54.664063 30.792968 54.664063 62.785156v78.300781c0 7.902344-6.425781 14.332031-14.328125 14.332031-7.902344-.003906-14.332032-6.429687-14.332032-14.332031zm0 0"/><path fill="#818181" d="m128.363281 264.53125c-2.105469-5.203125-8.03125-7.703125-13.230469-5.601562-5.199218 2.109374-7.707031 8.03125-5.597656 13.234374l.191406.476563c1.601563 3.953125 5.40625 6.347656 9.421876 6.347656 1.269531 0 2.5625-.238281 3.8125-.746093 5.199218-2.109376 7.707031-8.035157 5.597656-13.234376zm0 0"/><path fill="#818181" d="m365.386719 371.226562c-16.179688 7.667969-33.464844 12.847657-51.375 15.390626-21.785157 3.09375-43.613281 2.199218-64.867188-2.664063-5.480469-1.25-10.917969 2.167969-12.171875 7.636719-1.25 5.46875 2.167969 10.917968 7.636719 12.171875 14.5 3.316406 29.226563 4.980469 44.035156 4.980469 9.390625 0 18.8125-.671876 28.226563-2.007813 19.933594-2.832031 39.183594-8.601563 57.214844-17.148437 5.074218-2.402344 7.234374-8.460938 4.832031-13.53125-2.402344-5.070313-8.460938-7.234376-13.53125-4.828126zm0 0"/><path fill="#818181" d="m405.378906 349.042969-.238281-.039063c-5.546875-.84375-10.726563 2.976563-11.566406 8.527344-.839844 5.546875 2.976562 10.726562 8.523437 11.566406l.238282.035156c.515624.078126 1.03125.117188 1.535156.117188 4.9375 0 9.269531-3.609375 10.035156-8.640625.835938-5.546875-2.980469-10.726563-8.527344-11.566406zm0 0"/></svg>